<svg xmlns="http://www.w3.org/2000/svg" width="120" height="114" viewBox="0 0 120 114" fill="white">
<path fill-rule="evenodd" clip-rule="evenodd" d="M78.2872 0.0593895H76.9603L70.9575 0H1.97414C0.883197 0 0 0.882507 0 1.97132V12.8886C0 24.8623 8.46554 31.4556 23.839 31.4556L78.2872 31.5577C84.0426 31.5577 88.707 36.2141 88.707 41.9582C88.707 47.7033 84.0426 52.3586 78.2872 52.3586H78.2862H17.2276C16.3371 52.3586 15.5614 52.9609 15.3432 53.8236L0.897813 110.767C0.750613 111.346 0.880065 111.962 1.24754 112.434C1.61606 112.907 2.18189 113.182 2.78218 113.182H22.1415C29.395 113.182 32.8787 107.174 33.7003 104.021L39.3994 83.3224H78.2872C101.288 83.3224 120 64.647 120 41.6904C120 18.7348 101.288 0.0593895 78.2872 0.0593895Z" fill="white"/>
</svg>