<?xml version="1.0" encoding="UTF-8"?>
<svg xmlns="http://www.w3.org/2000/svg" version="1.1" viewBox="0 0 377.9 435.8">
  <defs>
    <style>
      .cls-1 {
        fill: #edeeee;
      }

      .cls-2 {
        fill: #130f21;
      }

      .cls-3 {
        fill: #d1e9e2;
      }

      .cls-4 {
        fill: #b2afb8;
      }

      .cls-5 {
        fill: #ffecca;
      }

      .cls-6 {
        fill: #e51351;
      }

      .cls-7 {
        fill: #fff;
      }

      .cls-8 {
        fill: #140f21;
      }

      .cls-9 {
        fill: #fefefe;
      }

      .cls-10 {
        fill: #f5f5f5;
      }
    </style>
  </defs>
  <!-- Generator: Adobe Illustrator 28.6.0, SVG Export Plug-In . SVG Version: 1.2.0 Build 709)  -->
  <g>
    <g id="Capa_1">
      <g>
        <path class="cls-3" d="M377.9,1.2v101.7c-.8,2.8-2.6,4.8-4.5,6.9-12.8,13.9-25.1,28.1-37.7,42.2-6.5,7.3-13.1,14.5-19.6,21.8-1.3,1.5-2.6,4.2-5.6,2.5-1.7-6.9-1.6-14.1-2.6-21.2-3.1-21-11.4-39.8-24.7-56.3-18-22.4-41.5-35.8-69.4-41.7-4.5-1-9.2-1.1-13.8-2.1-2-.9-4.7-.2-6.3-2.3-1.9-6.9-.9-13.8-.7-20.8,0-2.5,1.7-3.8,4.2-4.2,2.1-.3,4.3-.3,6.5-.3,37.1,0,74.1.1,111.2-.1,6.9,0,11.9,2,16.2,7.6,6.2,8,12.9,15.6,19.6,23.2.9,1,1.7,2.1,2.7,2.9,1.3,1.1,2.7,2.4,4.3.8,1.5-1.5.7-3.1-.3-4.5-3.7-5.1-7.9-9.8-12-14.6-4.5-5.3-9.2-10.5-13.4-16.1-3.3-4.4-7.4-6-12.9-6-32.6.1-65.1,0-97.7,0-7.1,0-14.3.1-21.4,0-5.7-.2-6.9-1.5-7.2-7.2q-.6-12.8,12.3-12.8c55.8,0,111.7,0,167.5,0,1.8,0,3.7-.5,5.4.5Z"/>
        <path class="cls-7" d="M377.9,1.2c-59.1,0-118.3,0-177.4-.1-4.7,0-6.3,1-6.2,6,.3,12.1,0,12.1,11.9,12.1,36.9,0,73.8.3,110.6-.2,8-.1,13.3,2.2,18.1,8.5,7.6,10,15.9,19.5,24.1,29,2.3,2.7,2.5,5.2.2,7.4-2.7,2.6-5.2,1-7.2-1.4-8-9.5-16.1-18.9-23.9-28.5-2.7-3.4-5.5-5-10-5-39.4.2-78.7.2-118.1,0-4.3,0-5.9,1-5.6,5.5.4,6.1,0,12.3,0,18.4-6.5,3.4-10.4,1.5-10.5-5.6-.3-12.4,0-24.8,0-37.3,0-6.8-.3-7-7-7-17.7,0-35.5,0-53.2,0-5.6,0-11.3,0-16.9-.2-27.7.2-55.4.4-83.1,0-5.5.2-10.9.2-16.4,0-4-.1-5.6,1.5-5.6,5.5.1,10.3,0,20.5,0,30.8,0,18.4,0,36.8,0,55.2,0,7.9,0,8,7.7,9.1,13.9,2,27.9,4.1,41.8,6.1q9.2,1.3,12.1-7.3c3.1-11.4,6.1-22.8,8.9-34.2,1.6-6.5,5.3-10,11.7-11.2,5.9-1.2,11.6-3.1,17.3-4.7,2.4-.7,4.8-1.4,7.3-1.4,3.6,0,6.2,1.3,6.9,5,.7,3.6-1.4,5.6-4.6,6.7-6.9,2.3-14.1,4-21.1,5.9-4,1.1-6.1,3.3-7,7.4-1.9,8.8-4.6,17.3-6.7,26,0,.3-.1.6-.2.9q-3,9.7,6.6,11.7c1.8.4,3.6.6,4.7,2.3.7,3.3-.8,5.7-3.4,7.6-3.2.5-6.2-.2-9.3-.6-2.7-.4-4.5.5-5.2,3.3-.7,2.9-1.6,5.7-2.2,8.6-.6,3,.6,4.3,3.5,4.7,2.2.3,4.7-.2,6.6,1.5,1.6,3.6,0,7-1.1,10.3-3.5,8.7-4.5,18-6.7,27-1.9,7.9-3.7,15.8-5.4,23.8-1,4.5-3.2,8.2-7,11.1-13.8,10.4-27.4,21.1-41.1,31.5-3.5,2.7-7,5.2-11.8,4-2.1-.5-2.6.9-2.6,2.6,0,4.2,0,8.3,0,12.5,0,3.2,2.1,4.2,4.7,4.9,9.9,2.8,20,5,29.9,7.7,7.2,2,14.5,3.5,21.7,5.7,1.1.3,2.3.6,3.3,1,4.1,1.7,6.1,4.8,5.1,8-1.1,3.5-4.5,5-9,3.6-16.4-4.9-33.1-8.7-49.7-12.9-5.7-1.4-6.1-1.1-6.1,4.6,0,25.1.1,50.2-.1,75.2,0,6.3,3.1,11.1,5.7,16.2,8.8,16.6,18,33,26.6,49.6,2.3,4.5,5.6,6.8,10.7,6.2,1.6-.2,3.3-.2,5,0,4.2.4,6.7-1.5,8.7-5.2,13.3-24.7,26.4-49.5,39.6-74.3,11.9-22.4,24-44.8,36-67.2.7-1.3,1.2-2.7,2.6-3.6,4.6-.5,6.5,2.6,8.1,6.1,0,3.3-2.1,5.9-3.5,8.7-1.3,2.7-.8,4.2,2.1,5.3,10.6,3.7,21.3,7.5,32,11.1,6,3.8,12.1,7.2,19.5,7,12.8,4.1,25.4,8.8,38.1,13.3,8.9,3.2,8.8,3.2,11.9-5.5,8.3-22.9,16.9-45.8,25.6-68.6,3.4-5.7,8.9-9.5,13-14.6.6-.8,1.7-1,2.7-.7,2.4,1.8,1.1,3.9.3,5.8-10.6,28.3-21.2,56.6-31.7,84.9-2,5.4-2,5.5,3.5,7.4,26.9,9.6,53.9,18.8,80.8,28.3,7.3,2.6,7.5,2.4,9.8-5.2,8.6-28.3,17.2-56.5,25.9-84.7.6-2,.3-4.9,3.5-5.3v30.9c-4.3,20.8-12,40.7-17.6,61.2-.4,1.4-.9,2.8-1.3,4.3-1.3,4.9-1.1,5.5,3.9,7.3,3.3,1.2,6.6,2.2,9.9,3.3,2.1.7,4,1.6,5.1,3.7v9c-2,1.7-4.1.6-6.1,0-4.5-1.3-8.7-3.2-13.1-4.7-3.1-1-5-.6-6,2.8-3.3,11.3-7.2,22.5-10.3,33.8-1.3,4.6-.7,5.3,4,5.4,8.3.1,16.6,0,24.9,0,2.3,0,4.7-.3,6.6,1.5-.9,2.1-2.7.9-4,.9-64.1,0-128.3,0-192.4,0s-119.6,0-179.4.1c-3.9,0-4.2-1.1-4.2-4.4,0-142.6,0-285.2,0-427.9C-2.1,1.2-1.7.1,2.2.1c123.9.1,247.9.1,371.8.2,1.3,0,3.1-1.1,4,.9Z"/>
        <path class="cls-10" d="M377.9,277.3c-3.8,9-6,18.5-8.9,27.8-7.2,23.1-14.1,46.2-21,69.4-.6,2.1-1.6,1.9-3.3,1.3-16.7-5.8-33.5-11.4-50.3-17.3-13.6-4.7-27.1-9.8-40.8-14.3-2.9-1-2.9-2.1-2.1-4.2,8.5-22.8,17.1-45.6,25.6-68.4,2.8-7.4,5.7-14.8,8.6-22.2.5-1.2.6-2.2-.6-3.1-.7-1.8.4-3.2,1.4-4.5,6.8-9,12.1-18.9,15.9-29.5.5-1.4,1-2.9,2.7-3.2,5.9,1.7,11.3,4.7,16.8,7.3,17.4,8.1,34.6,16.5,52.1,24.4,1.7.8,3.1,1.8,4,3.5v32.9Z"/>
        <path class="cls-3" d="M377.9,117.8v95.7c-2.2.9-3.8-.5-5.5-1.3-6.3-3.1-12.9-5.8-18.9-9.4-10.6-5.8-21.4-11.4-32.3-16.6-4.1-2-4.5-3.3-1.4-6.6,15.6-16.5,29.8-34.2,45.5-50.6,2.7-2.9,4.9-6.3,8-8.9,1.3-1.1,2.4-2.9,4.6-2.3Z"/>
        <path class="cls-10" d="M377.9,435.8c-11,0-21.9,0-32.9,0-5.7,0-6.2-.6-4.6-5.9,3.8-12.6,7.7-25.3,11.4-37.9.8-2.8,2.1-2.7,4.3-2.1,7.3,2.1,14,5.9,21.7,7.1v38.9Z"/>
        <path class="cls-10" d="M354,201.6c8,4,16,7.9,24,11.9v20.9c-4.5.7-7.9-2.2-11.5-3.9-18.9-8.8-37.6-18-56.5-26.7-1.3-.6-2.7-1.3-3.4-2.7.2-4.8,0-9.6,2.9-13.7.7,1.1,2,1.2,3.4.3,2.5-1.6,4.8-.7,7.1.3,9.7,4.2,19.9,7.2,29.3,12.1,1.4.7,2.9,1.7,4.6,1.4Z"/>
        <path class="cls-7" d="M354,201.6c-2.6,1.3-4.8-.5-6.9-1.3-9.3-3.5-18.5-7.2-27.6-11.2-3.6-1.6-6.2-1.1-8.9,2.4-.2-1.9-.4-3-.5-4.1-2.1-3.8-2.7-7.5.9-10.8,6.2-4.4,10.3-10.7,15.4-16.1,9.7-10.4,18.9-21.3,28.3-31.9,7.7-8.6,15.5-17.2,23.3-25.8v14.9c-7,5.4-12.2,12.6-18.2,19-10,10.6-19.4,21.8-29,32.6-3.5,4-7.1,7.9-10.7,11.7-1.5,1.6-1.7,2.4.7,3.5,11.4,5,22.4,10.9,33.3,16.9Z"/>
        <path class="cls-10" d="M377.9,387.9c-5.6-2.9-11.8-4.3-17.7-6.4-3.3-1.2-4.5-2.6-3.3-6.6,6.3-20.1,12.2-40.3,18.4-60.5.7-2.2.9-4.5,2.6-6.3v79.7Z"/>
        <path class="cls-7" d="M307.3,201.6c9.4,2.8,17.7,8.1,26.7,12,14.8,6.6,29.3,13.9,44,20.8v10c-23.4-11-46.8-21.9-70.3-32.8-1.1-.5-2-1-2.6-2.1-1.6-3.3-.4-5.8,2.2-7.9Z"/>
        <path class="cls-2" d="M307.3,201.6c-.7,2.6-1.5,5.2-2.2,7.9-4.9,13.3-11.5,25.6-20,36.9-4.6,5-9.2,10-13.9,15-7.1,10.4-17.1,17.9-26.3,26.2-11.4,10.3-23.4,20-35.4,29.7-4.4,3.5-8.8,7.1-15.1,6-7.7.7-14-2.7-19.8-7.2-9.3-5-16.6-12.6-24.6-19.2-2.3-1.9-5.5-3.3-6.4-6.7-1.9-2.5-4.3-4.4-6.9-6.1-4.1-.9-6.7-4.2-9.5-6.9-9.5-9.3-19.3-18.2-27.8-28.5-16.5-19.9-25.4-42.7-27.3-68.6-.7-9.8.6-19,2.6-28.4,1.1-3.2,1.9-6.5,2.1-9.9,0-6.8,2.2-12.8,6.6-18,1.1-2.3,2.2-4.6,3.3-6.9.5-5.5,4.7-9.1,7.1-13.6,11.8-17.1,27.4-29.8,46-39,12.5-6.5,25.9-10.3,39.9-11.3,6.8-.5,13.8.5,20.7,1,53.7,5.3,94.9,40.5,107.3,91.8,2.5,10.2,2.8,20.6,3.3,31-1,3.6-.8,7.2-.9,10.8-.9,4.7-1.9,9.4-2.8,14Z"/>
        <path class="cls-3" d="M200.4,53.9c-18.8-.7-37.1,1.6-54.6,9.2-2.1.9-4.2,1.8-6.3,2.7-2.3-.6-2.9-2.6-3.7-4.4-8.8-18.1-18.6-35.6-27.3-53.6-1-2-2.7-3.9-1.7-6.5,24.7,0,49.5,0,74.2-.1,3.4,0,4.6,1,4.6,4.5-.2,13.6,0,27.2,0,40.8q0,6.5,6.3,6.5c.8,0,1.7,0,2.5,0,2,.5,4.2-.6,6.1.9Z"/>
        <path class="cls-10" d="M74.8,151.7c-1.4,12.5-2.1,25-.3,37.6,3.8,26.1,15.2,48.4,33.7,67,9.3,9.4,19,18.5,28.5,27.7-4.6,10.3-10.2,20-15.5,30-8.8,16.6-17.6,33.3-26.4,49.9-12.2,22.9-24.6,45.8-36.9,68.7-.3.6-.7,1.2-1.1,1.6-3.4,3.4-19.9,1.8-22.2-2.3-5.4-9.3-10.5-18.8-15.6-28.3-5.2-9.6-10.2-19.3-15.4-28.8-2.3-4.2-3.6-8.3-3.5-13.2.2-25.7.2-51.5,0-77.2,0-4.3.9-5.4,5.3-4.2,17.5,4.8,35.4,8.5,52.8,14,3.5,1.1,6.2.6,7.2-2.9.9-3.2-1.3-5.3-4.3-6.1-9.9-2.7-19.8-5.3-29.7-7.8-9.1-2.4-18.2-4.8-27.4-7-2.7-.7-3.9-2-3.8-4.8.2-5.1.1-10.3,0-15.4,0-2.4.6-3.6,3.1-2.5,4.1,1.9,7.3.3,10.5-2.2,14.1-10.9,28.3-21.8,42.5-32.5,4-3,5.8-6.9,6.8-11.6,3.4-15.5,6.9-30.9,10.4-46.4.2-1.1,1-2.1,1.5-3.1Z"/>
        <path class="cls-10" d="M190.8,435.8c-14.3,2.2-26.6-4-39.3-8.8-20.4-7.7-40.9-15.4-61.4-23.1-5.8-2.2-5.8-2.6-2.8-8,6.3-11.3,12.4-22.7,18.5-34.1,8.4-15.6,16.7-31.3,25-47,1.2-2.4,2.6-2.9,5.2-2,18.9,6.7,37.8,13.3,56.7,19.9,13.8,4.8,27.5,9.7,41.3,14.4,3.8,1.3,4.6,2.9,3,6.9-9.8,25.7-19.4,51.4-28.8,77.3-1.2,3.4-2.8,4.8-6.4,4.6-3.6-.3-7.3,0-11,0Z"/>
        <path class="cls-1" d="M106.8,1.3c10.9,21.5,21.9,43,32.8,64.5-18,9.1-32.8,22.1-44.9,38.2-6.9,2.4-13.5,1.3-19.9-2,2.6-10.2,5.2-20.4,7.7-30.7.5-2,1.6-2.8,3.7-3.4,8.1-2.1,16.2-4.6,24.3-6.8,2.6-.7,4.4-1.9,4-4.7-.4-3-2.2-4.6-5.5-4.3-4.5.3-8.6,2.2-13,3.2-5,1.1-9.9,2.5-14.8,3.9-3.3,1-5.6,2.8-6.6,6.6-3.1,12.1-6.5,24.1-9.7,36.2-9.3.2-18.4-1.9-27.6-2.8-11.8-1.2-11.6-1.6-12.1-13.4-.6-16.4-1.7-32.7-2.5-49.1-.5-9.6-1.5-19.2-1.3-28.8,0-2.3-.1-4.7,1.6-6.6,28,0,55.9,0,83.9,0Z"/>
        <path class="cls-10" d="M272.3,435.8c-16.8,0-33.5,0-50.3,0-5.7,0-5.8-.2-3.9-5.5,9.1-24.7,18.3-49.4,27.3-74.1,1.2-3.4,2.8-4.2,6.2-3,29.2,10.3,58.4,20.6,87.7,30.5,4.4,1.5,5.1,3.2,3.7,7.4-4.2,13-8.1,26.2-12,39.4-1.2,4.1-4,5.3-7.9,5.2-16.9,0-33.9,0-50.8,0Z"/>
        <path class="cls-10" d="M0,188.5c0-14.8,0-29.6,0-44.3,0-3.4.6-4.7,4.6-3.8,18.8,4.6,37.9,7,57.1,9.3,3.2.4,3.5,1.9,2.9,4.3-3.6,15.4-7.2,30.9-10.8,46.3-.6,2.4-2,4.2-3.9,5.6-12.8,9.9-25.7,19.8-38.6,29.6-2,1.5-3.9,3.5-7.1,2.6-3-.8-4.3-1.9-4.3-5.3.2-14.8,0-29.6,0-44.3Z"/>
        <path class="cls-3" d="M22.9,1.3c-.4,17.7,1.8,35.3,2.2,53,.3,12.3,1.8,24.7,1.8,37.1,0,3.8,1.2,5.5,5.5,5.7,9.5.6,19,1.9,28.5,3.1,1.4.2,3,.5,4,1.7-3,11-3,10.8-14.3,9.1-14.8-2.2-29.7-4.2-44.6-6.2-4-.5-6.2-1.7-6.1-6.7C.2,67.7.1,37.2,0,6.7-.1,2.3,1.1.9,5.5,1.2c5.8.4,11.6.1,17.4.1Z"/>
        <path class="cls-10" d="M194.5,323.3c8.4-1.1,14.1-6.9,20.2-11.9,19.5-15.9,38.5-32.5,56.5-50-6.6,17.8-13.2,35.6-19.8,53.5-2.5,6.8-4.9,13.7-7.4,20.5-1,2.8-1.8,4.9-6.2,3.3-14.5-5.1-29-10.1-43.4-15.4Z"/>
        <path class="cls-10" d="M52.8,139.1c-16.3-1.7-32.3-4.4-48.2-8.3-3.4-.8-5-2.4-4.6-6.2.4-3.4.1-7,0-10.4,0-2.6.8-3.5,3.6-3,16.8,2.7,33.5,5.2,50.3,7.7,6.2.9,6.5,1.3,4.7,7.1-1,3.5-1.9,7-2.8,10.5-.4,1.8-.8,3.3-3.1,2.6Z"/>
        <path class="cls-10" d="M143.7,434.3c-2.2,1.4-4.6,1.5-7.1,1.5-20.2,0-40.5,0-60.7,0-.7,0-1.3,0-2,0-6.2-.3-7-1.8-4-7.2,2.8-4.9,5.4-9.8,8-14.8,1.3-2.4,2.9-3.5,5.6-2.5,19.8,7.4,39.6,14.8,59.4,22.3.3,0,.4.5.7.7Z"/>
        <path class="cls-10" d="M0,387.5c5.5,10,10.2,18.6,14.9,27.3,2.9,5.4,5.7,10.8,8.7,16.2,1.6,3,1.3,4.7-2.5,4.7-5.3,0-10.6.1-15.9,0-3.3-.1-5.3-1.5-5.2-5.5.3-13.7,0-27.4,0-42.6Z"/>
        <path class="cls-10" d="M143.6,290.2c10.3,8.7,20.7,17.3,31,26-9.2-2-17.8-6-26.7-8.9-3.4-1.1-8.5-1.2-9.6-4.2-1.3-3.5,2.8-7,4.2-10.7.3-.8.7-1.5,1.1-2.2Z"/>
        <path class="cls-10" d="M83.5,123.8c-2.2,6-4.4,12-6.6,18q-13.6-.1-9.8-12.6,2.3-7.5,10.6-6.4c1.9.2,4-.3,5.7,1Z"/>
        <path class="cls-3" d="M74.8,101.9c6.6.6,13.2,2.2,19.9,2-2.6,4.3-5.3,8.6-7.9,12.9-3.6-1.3-7.3-1.7-11-1.9-3.6-.2-4.6-1.8-3.5-5.1.9-2.6,1.7-5.3,2.5-7.9Z"/>
        <path class="cls-7" d="M302.6,172.4c-.2,32.4-13,59.3-35.8,81.9-20.6,20.3-42.4,39.1-65,57.1-6.3,5-12.9,5.4-18.7.7-26.4-21.4-52.8-42.9-75.5-68.4-36-40.4-34.5-107.1,3-146.2,24.7-25.8,54.8-37.4,90.3-35.4,46.6,2.6,90.3,40.7,99.3,86.6,1.5,7.8,2.4,15.7,2.5,23.7Z"/>
        <path class="cls-4" d="M191.8,372c-5.1.4-9.9-.7-14-3.8-4.9-3.6-4.9-9.1,0-12.7,6.8-4.9,21.4-4.9,28.3,0,5.2,3.7,5.2,9.5-.2,13-4.3,2.8-9.1,3.9-14.2,3.5Z"/>
        <path class="cls-8" d="M165.9,127.7c4.2-3.7,7.9-7,11.7-10.3,9.3-8.2,19.8-8,29.1,0,15.7,13.8,31.4,27.5,47.1,41.3,2,1.7,4,3.6,5.5,5.7,3.4,5.2,1.3,12.5-4.7,15.1-3,1.3-3.3,2.9-3.3,5.5,0,12.8,0,25.6,0,38.3,0,9.9-5.1,15.1-15,15.1-29.6,0-59.1,0-88.7,0-9.5,0-14.8-5.2-14.8-14.7,0-12.9,0-25.9,0-38.8,0-2.4-.2-4-2.9-5.3-7.6-3.5-8.8-12-2.8-18,.5-.5.9-1,1.5-1.4,10.2-5.8,13.1-14.8,11.3-25.9-.4-2.8,0-5.6,0-8.5,0-7.8,1.8-9.5,9.7-9.5,1.5,0,3,0,4.5,0,10.2,0,10.9.6,11.9,11.2Z"/>
        <path class="cls-7" d="M244.3,203.4c0,6.8,0,13.6,0,20.4,0,5.6-2,7.7-7.3,7.7-7.5,0-14.9-.1-22.4,0-2.8,0-3.2-1-3.2-3.5.1-12.9,0-25.9,0-38.8,0-8.4-4.1-12.5-12.5-12.6-6.1,0-12.3,0-18.4,0-8.4,0-12.5,4.1-12.6,12.6-.1,12.6-.1,25.2,0,37.8,0,3.3-.6,4.7-4.2,4.5-5.5-.3-11,0-16.4-.1-5.1,0-7.4-2.1-7.5-7.1-.1-14.1,0-28.2,0-42.3,0-1.9.8-3,2.1-4.1,16.1-14.3,32.2-28.7,48.2-43.1,1.5-1.4,2.4-1.5,4.1,0,16.1,14.6,32.3,29.1,48.6,43.5,1.5,1.4,1.7,2.6,1.7,4.3,0,7,0,13.9,0,20.9Z"/>
        <path class="cls-6" d="M191.8,117.8c4.3,0,7.4,1.8,10.2,4.3,16.4,14.3,32.7,28.6,49,43,1.8,1.6,4,3.3,2.9,6.3-1.3,3.6-5,4-8.5.9-14.2-12.7-28.4-25.5-42.6-38.2-1.4-1.2-2.8-2.4-4.1-3.6-6.8-6.1-6.7-6-13.7.2-15.4,13.8-30.9,27.6-46.4,41.5-2.5,2.2-5,3.7-7.7.6-2.5-2.9-.8-5.2,1.5-7.2,16.8-14.6,33.5-29.2,50.2-43.9,2.7-2.4,5.8-3.9,9-3.8Z"/>
        <path class="cls-5" d="M175.3,207.3c0-6.1.1-12.3,0-18.4,0-3.5,1.5-4.8,4.8-4.7,6.5,0,12.9,0,19.4,0,3.4,0,4.7,1.7,4.7,4.9,0,12.4,0,24.9,0,37.3,0,2.4-.8,3.1-3.2,3.1-7.5-.1-14.9-.1-22.4,0-2.6,0-3.4-.7-3.4-3.3.2-6.3,0-12.6,0-18.9Z"/>
        <path class="cls-9" d="M146.3,144.7c0-7.2,0-13.1,0-19.1,0-2.1.6-3.1,2.8-2.8.5,0,1,0,1.5,0,2.7.7,6.3-1.8,8.1,1.3,1.9,3.2-.3,10.2-3.4,12.8-2.7,2.3-5.4,4.7-9,7.8Z"/>
      </g>
    </g>
  </g>
</svg>