<?xml version="1.0" encoding="UTF-8"?>
<svg xmlns="http://www.w3.org/2000/svg" version="1.1" viewBox="0 0 250.3 250.3">
  <defs>
    <style>
      .cls-1 {
        fill: none;
      }

      .cls-2 {
        fill: #ff0051;
      }

      .cls-3 {
        fill: #fff;
      }
    </style>
  </defs>
  <!-- Generator: Adobe Illustrator 28.6.0, SVG Export Plug-In . SVG Version: 1.2.0 Build 709)  -->
  <g>
    <g id="Capa_1">
      <path class="cls-1" d="M-141.9,114.3c0-4,3.2-7.2,7.2-7.2H-43.1c4,0,7.2,3.2,7.2,7.2v91.6c0,4-3.2,7.2-7.2,7.2h-91.6c-4,0-7.2-3.2-7.2-7.2v-91.6Z"/>
      <g>
        <path class="cls-2" d="M0,17C0,7.6,7.6,0,17,0h216.4C242.7,0,250.3,7.6,250.3,17v216.4c0,9.4-7.6,17-17,17H17C7.6,250.3,0,242.7,0,233.4V17Z"/>
        <g>
          <path class="cls-3" d="M73.9,99.1h-3.4s-31.7,0-31.7,0c-.5,0-.9.4-.9.9v5c0,5.5,3.9,8.6,11,8.6h25c2.6,0,4.8,2.2,4.8,4.8s-2.1,4.8-4.8,4.8h-28.1c-.4,0-.8.3-.9.7l-6.6,26.2c0,.3,0,.6.2.8.2.2.4.3.7.3h8.9c3.3,0,4.9-2.8,5.3-4.2l2.6-9.5h17.9c10.6,0,19.2-8.6,19.2-19.2s-8.6-19.2-19.2-19.2"/>
          <path class="cls-3" d="M140.5,126.9c0,.8.6,1.4,1.6,1.4s2.4-.8,2.6-2v-1c0,0-.6-.3-1.6-.3-1.6,0-2.6.7-2.6,1.8Z"/>
          <path class="cls-3" d="M182.3,120.8c-1,0-1.9.7-2.4,2.1h4.2c.1-1.2-.5-2.1-1.7-2.1Z"/>
          <path class="cls-3" d="M210.6,105.5h-100.7c-.9,0-1.7.6-1.9,1.5l-3.1,15.3c-2,9.7,5.5,18.9,15.4,18.9h83.7c.9,0,1.7-.6,1.9-1.5l6.5-31.9c.2-1.2-.7-2.3-1.9-2.3ZM133.5,130.9h-4.4l1.4-10.2-4.7,5.3h-1.9l-3.2-5.3-1.4,10.2h-4.4l2.6-18.5h3.6l4.6,7.9,6.8-7.9h3.6l-2.6,18.5ZM149.4,122.9l-1.1,8h-3l-.4-1.6h-.1c-.8,1.1-2.2,1.9-4.3,1.9s-4.1-1.5-4.1-3.5c0-3,2.2-4.8,6.5-4.8s1.7.1,2.3.3v-.4c.2-1.3-.8-1.6-2.5-1.6s-3.4.9-3.4.9l-.9-3.1s2.1-1.2,5.7-1.2,5.8,2.1,5.4,5.3ZM160.2,121.7h-.7c-1.6,0-2.9,1.1-3.1,2.9l-.9,6.3h-4.4l1.8-12.9h2.7l.5,1.8h.2c.9-1.2,2.1-1.8,3.8-1.8h.7l-.5,3.8ZM169.2,130.9l-2.1-4.7-1.4,1.4-.5,3.3h-4.4l2.6-18.6h4.4l-1.5,10.5,4-4.8h5.2l-5,5.6,3.4,7.3h-4.8ZM187.9,125.3h-8.4c0,1.8.9,2.5,2.8,2.5s3.3-1,3.3-1l1.1,2.9s-1.9,1.6-5.2,1.6-6.2-2.6-6.2-5.9,3.4-7.7,7.6-7.7,5.3,2,5.3,5.4-.3,2.3-.3,2.3ZM199,121.4h-2.9l-.7,4.9c0,.7.2,1.1,1,1.1s1.2-.4,1.2-.4l.8,3c-.9.6-2.4,1.1-3.7,1.1-3.2,0-4.1-2-3.7-4.7l.7-5.1h-2.1l.5-3.4h2.1l.6-3.9h4.4l-.6,3.9h2.9l-.5,3.4Z"/>
        </g>
      </g>
    </g>
  </g>
</svg>