<?xml version="1.0" encoding="UTF-8"?>
<svg xmlns="http://www.w3.org/2000/svg" version="1.1" viewBox="0 0 45.8 26.9">
  <defs>
    <style>
      .cls-1 {
        fill: #100423;
        fill-rule: evenodd;
      }
    </style>
  </defs>
  <!-- Generator: Adobe Illustrator 28.6.0, SVG Export Plug-In . SVG Version: 1.2.0 Build 709)  -->
  <g>
    <g id="Capa_1">
      <path class="cls-1" d="M30.5-.1h-4.3s0,0,0,0c-.1,0-.3,0-.4.1-.4.2-.7.6-.7,1.1,0,.7.6,1.3,1.3,1.3h4l.6,1.8c-.6.1-1.2.2-1.9.3-.1,0-.3,0-.4,0-1.8.2-3.6.3-5.4.2h0c-.5,0-1,0-1.5,0-1.2,0-2.4-.2-3.8-.4h-.5c-.8-.2-1.7-.4-2.7-.6l-2.6-.5c-.8-.2-1.5-.3-2-.4l-1.5-.3-1.2-.2h-.3s0,0,0,0c-1.5,0-2.8,1-3,2.4-.3,1.5.6,3.1,2.2,3.5,2.9.8,5.6,2,8.1,3.6.7.5,1.3,1,1.9,1.5.5.5,1,1.1,1.6,1.8l.5.7-3.1,1.3c-1.1-1.6-3-2.7-5.1-2.7-3.4,0-6.2,2.8-6.2,6.2s2.8,6.2,6.2,6.2,6.2-2.8,6.2-6.2,0-.8-.1-1.2l3.8-1.6c1.1,1.1,2.3,1.6,4,1.6h1.6s.3,0,.3,0h0c1.1-.1,1.9-.9,2.8-2.1.3-.4,1-1.7,1.5-2.5.2-.4.4-.6.4-.7l.3-.4c.7-1.1,1.4-1.9,2.2-2.5l.8,2.5c-2.2,1.2-3.8,3.5-3.8,6.2,0,3.9,3.1,7,7,7s7-3.1,7-7-3.1-7-7-7-.5,0-.8,0l-.9-2.9c2.4-.7,4.2-.3,5.4.6.5.3.7.7.8.8v.2c.1,0,.1,0,.1,0,.4.5,1.1.6,1.6.3.6-.4.8-1.1.4-1.7-.3-.4-.7-1-1.5-1.6-1.9-1.4-4.5-1.9-7.7-1l-1.9-6.1v-.2c0,0,0,0,0,0-.4-.9-1.2-1.4-2.2-1.4ZM6.5,5.4c0-.2.3-.4.5-.4.5,0,.9.1,1.4.2h.8c0,.1,5.7,1.2,5.7,1.2.8.1,1.5.3,2.2.4l4.4,3.5h.2c0,.1,0,.1,0,.1.2.1.4.2.6.2h4.9s.2,0,.2,0h0c.4,0,.7-.3.9-.7l1.4-2.9c.6,0,1.2-.2,1.9-.3l.6,2c-1.5.9-2.6,2.3-3.8,4.2,0,.1-.3.5-.5.9l-.2.3c-.3.6-.7,1.2-1,1.6l-.2.3c-.3.4-.5.6-.6.8-.2.2-.3.2-.3.2h-1.9c-.5,0-.9-.2-1.3-.4-.4-.3-.8-.6-1.3-1.2l-.9-1.2-.7-.9h0c-.5-.6-.9-1.1-1.4-1.6-.7-.7-1.4-1.3-2.3-1.8-2.7-1.8-5.7-3.1-8.9-4-.2,0-.4-.3-.3-.5ZM22.8,8l-1-.8c.4,0,.9,0,1.3,0,1.2,0,2.5,0,3.7,0l-.4.8h-3.7ZM38.2,19.5l-1.2-4.1h0c2.4,0,4.4,2,4.4,4.4s-2,4.4-4.4,4.4-4.4-2-4.4-4.4.8-2.9,2-3.7l1.2,4.1v.2c0,0,0,0,0,0,.3.5.9.8,1.5.7.7-.2,1-.9.8-1.6ZM6.5,20.7c0-2,1.6-3.6,3.6-3.6s2,.4,2.6,1.2l-3.1,1.3h-.2c0,0,0,0,0,0-.5.3-.7,1-.5,1.6.3.6,1,1,1.7.7l3.1-1.3s0,0,0,.1c0,2-1.6,3.6-3.6,3.6s-3.6-1.6-3.6-3.6Z"/>
    </g>
  </g>
</svg>